<svg xmlns="http://www.w3.org/2000/svg" xmlns:xlink="http://www.w3.org/1999/xlink" width="500" zoomAndPan="magnify" viewBox="0 0 375 374.999991" height="500" preserveAspectRatio="xMidYMid meet" version="1.0"><defs><clipPath id="c939420dff"><path d="M 131.894531 150.886719 L 242.8125 150.886719 L 242.8125 224.097656 L 131.894531 224.097656 Z M 131.894531 150.886719 " clip-rule="nonzero"/></clipPath><clipPath id="c27ef16d7a"><path d="M 132 165 L 242.8125 165 L 242.8125 181 L 132 181 Z M 132 165 " clip-rule="nonzero"/></clipPath><clipPath id="db5e531960"><path d="M 176.65625 150.886719 L 215.183594 150.886719 L 215.183594 211.238281 L 176.65625 211.238281 Z M 176.65625 150.886719 " clip-rule="nonzero"/></clipPath><clipPath id="759291dba1"><path d="M 187.90625 150.886719 L 203.933594 150.886719 C 206.917969 150.886719 209.78125 152.070312 211.890625 154.179688 C 214 156.292969 215.183594 159.152344 215.183594 162.136719 L 215.183594 199.972656 C 215.183594 202.957031 214 205.820312 211.890625 207.929688 C 209.78125 210.039062 206.917969 211.222656 203.933594 211.222656 L 187.90625 211.222656 C 184.921875 211.222656 182.058594 210.039062 179.949219 207.929688 C 177.839844 205.820312 176.65625 202.957031 176.65625 199.972656 L 176.65625 162.136719 C 176.65625 159.152344 177.839844 156.292969 179.949219 154.179688 C 182.058594 152.070312 184.921875 150.886719 187.90625 150.886719 Z M 187.90625 150.886719 " clip-rule="nonzero"/></clipPath><clipPath id="9564428ea9"><path d="M 0.65625 0.886719 L 39.183594 0.886719 L 39.183594 61.238281 L 0.65625 61.238281 Z M 0.65625 0.886719 " clip-rule="nonzero"/></clipPath><clipPath id="fcff5c160d"><path d="M 11.90625 0.886719 L 27.933594 0.886719 C 30.917969 0.886719 33.78125 2.070312 35.890625 4.179688 C 38 6.292969 39.183594 9.152344 39.183594 12.136719 L 39.183594 49.972656 C 39.183594 52.957031 38 55.820312 35.890625 57.929688 C 33.78125 60.039062 30.917969 61.222656 27.933594 61.222656 L 11.90625 61.222656 C 8.921875 61.222656 6.058594 60.039062 3.949219 57.929688 C 1.839844 55.820312 0.65625 52.957031 0.65625 49.972656 L 0.65625 12.136719 C 0.65625 9.152344 1.839844 6.292969 3.949219 4.179688 C 6.058594 2.070312 8.921875 0.886719 11.90625 0.886719 Z M 11.90625 0.886719 " clip-rule="nonzero"/></clipPath><clipPath id="14f7aaf5ae"><rect x="0" width="40" y="0" height="62"/></clipPath><clipPath id="bfb638620b"><path d="M 179.679688 150.90625 L 211.929688 150.90625 L 211.929688 210.59375 L 179.679688 210.59375 Z M 179.679688 150.90625 " clip-rule="nonzero"/></clipPath><clipPath id="08e9adda1f"><path d="M 182.703125 150.90625 L 214.953125 150.90625 L 214.953125 210.59375 L 182.703125 210.59375 Z M 182.703125 150.90625 " clip-rule="nonzero"/></clipPath></defs><rect x="-37.5" width="450" fill="#ffffff" y="-37.499999" height="449.999989" fill-opacity="1"/><rect x="-37.5" width="450" fill="#ffffff" y="-37.499999" height="449.999989" fill-opacity="1"/><g clip-path="url(#c939420dff)"><path fill="#cfa600" d="M 141.128906 150.886719 L 233.871094 150.886719 C 236.328125 150.886719 238.660156 151.859375 240.394531 153.59375 C 242.132812 155.332031 243.109375 157.664062 243.109375 160.121094 L 243.109375 214.863281 C 243.109375 217.316406 242.132812 219.652344 240.394531 221.386719 C 238.660156 223.125 236.328125 224.097656 233.871094 224.097656 L 141.128906 224.097656 C 138.675781 224.097656 136.339844 223.125 134.605469 221.386719 C 132.871094 219.652344 131.894531 217.316406 131.894531 214.863281 L 131.894531 160.121094 C 131.894531 157.664062 132.871094 155.332031 134.605469 153.59375 C 136.339844 151.859375 138.675781 150.886719 141.128906 150.886719 Z M 233.871094 156.015625 L 141.128906 156.015625 C 140.039062 156.015625 139.003906 156.453125 138.234375 157.226562 C 137.464844 157.996094 137.027344 159.03125 137.027344 160.121094 L 137.027344 214.863281 C 137.027344 215.953125 137.464844 216.988281 138.234375 217.757812 C 139.003906 218.53125 140.039062 218.964844 141.128906 218.964844 L 233.871094 218.964844 C 234.964844 218.964844 235.996094 218.53125 236.769531 217.757812 C 237.539062 216.988281 237.976562 215.953125 237.976562 214.863281 L 237.976562 160.121094 C 237.976562 159.03125 237.539062 157.996094 236.769531 157.226562 C 235.996094 156.453125 234.964844 156.015625 233.871094 156.015625 " fill-opacity="1" fill-rule="evenodd"/></g><g clip-path="url(#c27ef16d7a)"><path fill="#cfa600" d="M 242.253906 166.957031 L 242.253906 180.464844 L 132.75 180.464844 L 132.75 165.25 L 242.253906 165.25 L 242.253906 166.957031 " fill-opacity="1" fill-rule="nonzero"/></g><path fill="#cfa600" d="M 151.054688 190.914062 C 152.296875 190.914062 153.488281 191.136719 154.597656 191.542969 C 154.695312 191.582031 154.792969 191.617188 154.890625 191.65625 C 154.46875 191.980469 154.066406 192.328125 153.6875 192.710938 C 151.433594 194.960938 150.179688 197.992188 150.179688 201.179688 C 150.179688 204.363281 151.433594 207.394531 153.6875 209.644531 C 154.066406 210.027344 154.46875 210.378906 154.890625 210.699219 C 154.792969 210.738281 154.695312 210.773438 154.597656 210.8125 C 153.488281 211.222656 152.296875 211.445312 151.054688 211.445312 C 148.21875 211.445312 145.652344 210.292969 143.796875 208.4375 C 141.9375 206.578125 140.789062 204.011719 140.789062 201.179688 C 140.789062 198.34375 141.9375 195.777344 143.796875 193.917969 C 145.652344 192.0625 148.21875 190.914062 151.054688 190.914062 " fill-opacity="1" fill-rule="nonzero"/><path fill="#cfa600" d="M 154.894531 193.917969 C 156.753906 192.0625 159.320312 190.914062 162.15625 190.914062 C 164.992188 190.914062 167.558594 192.0625 169.414062 193.917969 C 171.273438 195.777344 172.421875 198.34375 172.421875 201.179688 C 172.421875 204.011719 171.273438 206.578125 169.414062 208.4375 C 167.558594 210.292969 164.992188 211.445312 162.15625 211.445312 C 159.320312 211.445312 156.753906 210.292969 154.894531 208.4375 C 153.039062 206.578125 151.890625 204.011719 151.890625 201.179688 C 151.890625 198.34375 153.039062 195.777344 154.894531 193.917969 " fill-opacity="1" fill-rule="nonzero"/><path fill="#cfa600" d="M 181.835938 198.609375 L 192.800781 198.609375 C 194.132812 198.609375 195.214844 199.761719 195.214844 201.179688 C 195.214844 202.59375 194.132812 203.746094 192.800781 203.746094 L 181.835938 203.746094 C 180.503906 203.746094 179.421875 202.59375 179.421875 201.179688 C 179.421875 199.761719 180.503906 198.609375 181.835938 198.609375 Z M 200.929688 198.609375 L 211.890625 198.609375 C 213.226562 198.609375 214.308594 199.761719 214.308594 201.179688 C 214.308594 202.59375 213.226562 203.746094 211.890625 203.746094 L 200.929688 203.746094 C 199.597656 203.746094 198.515625 202.59375 198.515625 201.179688 C 198.515625 199.761719 199.597656 198.609375 200.929688 198.609375 Z M 220.023438 198.609375 L 230.984375 198.609375 C 232.320312 198.609375 233.402344 199.761719 233.402344 201.179688 C 233.402344 202.59375 232.320312 203.746094 230.984375 203.746094 L 220.023438 203.746094 C 218.6875 203.746094 217.605469 202.59375 217.605469 201.179688 C 217.605469 199.761719 218.6875 198.609375 220.023438 198.609375 " fill-opacity="1" fill-rule="evenodd"/><g clip-path="url(#db5e531960)"><g clip-path="url(#759291dba1)"><g transform="matrix(1, 0, 0, 1, 176, 150)"><g clip-path="url(#14f7aaf5ae)"><g clip-path="url(#9564428ea9)"><g clip-path="url(#fcff5c160d)"><path fill="#ffffff" d="M 0.65625 0.886719 L 39.183594 0.886719 L 39.183594 61.238281 L 0.65625 61.238281 Z M 0.65625 0.886719 " fill-opacity="1" fill-rule="nonzero"/></g></g></g></g></g></g><g clip-path="url(#bfb638620b)"><path fill="#004b05" d="M 186.605469 166.441406 C 186.605469 163.84375 187.644531 161.851562 189.71875 160.472656 C 191.234375 159.46875 192.785156 158.96875 194.367188 158.96875 L 194.367188 174.621094 C 189.191406 172.492188 186.605469 169.765625 186.605469 166.441406 Z M 197.363281 185.089844 C 202.964844 187.136719 205.765625 190.132812 205.765625 194.070312 C 205.765625 196.53125 204.726562 198.5 202.652344 199.980469 C 201.035156 201.148438 199.273438 201.761719 197.363281 201.824219 Z M 186.800781 194.75 C 187.75 194.042969 188.226562 193.089844 188.226562 191.890625 C 188.226562 189.554688 186.964844 188.386719 184.445312 188.386719 C 183.363281 188.386719 182.394531 188.765625 181.546875 189.519531 C 180.300781 190.621094 179.679688 192.238281 179.679688 194.375 C 179.679688 197.738281 181.152344 200.441406 184.097656 202.484375 C 186.851562 204.433594 190.273438 205.40625 194.367188 205.40625 L 194.367188 210.59375 L 197.363281 210.59375 L 197.363281 205.171875 C 202.996094 204.480469 207.058594 202.46875 209.546875 199.136719 C 211.28125 196.8125 212.152344 194.046875 212.152344 190.839844 C 212.152344 185.625 209.023438 181.410156 202.765625 178.203125 C 200.476562 177.105469 198.671875 176.273438 197.363281 175.707031 L 197.363281 158.542969 C 199.175781 158.542969 200.875 159.050781 202.457031 160.058594 C 204.039062 161.070312 204.832031 162.191406 204.832031 163.417969 C 204.832031 163.769531 204.503906 164.210938 203.847656 164.746094 C 203.191406 165.28125 202.867188 165.960938 202.867188 166.78125 C 202.867188 169.179688 203.976562 170.378906 206.207031 170.378906 C 209.085938 170.378906 210.527344 168.617188 210.527344 165.097656 C 210.527344 162.648438 209.359375 160.523438 207.023438 158.734375 C 204.492188 156.847656 201.273438 155.90625 197.363281 155.90625 L 197.363281 150.90625 L 194.367188 150.90625 L 194.367188 155.90625 C 190.796875 156 187.6875 157.257812 185.03125 159.675781 C 182.214844 162.222656 180.808594 165.316406 180.808594 168.964844 C 180.808594 172.925781 182.3125 176.128906 185.328125 178.582031 C 186.800781 179.777344 189.816406 181.457031 194.367188 183.625 L 194.367188 202.0625 C 192.359375 202.15625 190.382812 201.683594 188.441406 200.640625 C 186.398438 199.507812 185.378906 198.199219 185.378906 196.714844 C 185.378906 196.117188 185.851562 195.460938 186.800781 194.75 " fill-opacity="1" fill-rule="nonzero"/></g><g clip-path="url(#08e9adda1f)"><path fill="#006d0e" d="M 189.628906 166.441406 C 189.628906 163.84375 190.667969 161.851562 192.742188 160.472656 C 194.257812 159.46875 195.808594 158.96875 197.390625 158.96875 L 197.390625 174.621094 C 192.214844 172.492188 189.628906 169.765625 189.628906 166.441406 Z M 200.386719 185.089844 C 205.988281 187.136719 208.789062 190.132812 208.789062 194.070312 C 208.789062 196.53125 207.75 198.5 205.675781 199.980469 C 204.058594 201.148438 202.296875 201.761719 200.386719 201.824219 Z M 189.824219 194.75 C 190.773438 194.042969 191.25 193.089844 191.25 191.890625 C 191.25 189.554688 189.988281 188.386719 187.46875 188.386719 C 186.386719 188.386719 185.421875 188.765625 184.570312 189.519531 C 183.324219 190.621094 182.703125 192.238281 182.703125 194.375 C 182.703125 197.738281 184.175781 200.441406 187.125 202.484375 C 189.875 204.433594 193.296875 205.40625 197.390625 205.40625 L 197.390625 210.59375 L 200.386719 210.59375 L 200.386719 205.171875 C 206.019531 204.480469 210.082031 202.46875 212.570312 199.136719 C 214.304688 196.8125 215.175781 194.046875 215.175781 190.839844 C 215.175781 185.625 212.046875 181.410156 205.789062 178.203125 C 203.5 177.105469 201.695312 176.273438 200.386719 175.707031 L 200.386719 158.542969 C 202.199219 158.542969 203.898438 159.050781 205.480469 160.058594 C 207.0625 161.070312 207.855469 162.191406 207.855469 163.417969 C 207.855469 163.769531 207.527344 164.210938 206.871094 164.746094 C 206.214844 165.28125 205.890625 165.960938 205.890625 166.78125 C 205.890625 169.179688 207 170.378906 209.230469 170.378906 C 212.109375 170.378906 213.554688 168.617188 213.554688 165.097656 C 213.554688 162.648438 212.382812 160.523438 210.046875 158.734375 C 207.515625 156.847656 204.296875 155.90625 200.386719 155.90625 L 200.386719 150.90625 L 197.390625 150.90625 L 197.390625 155.90625 C 193.820312 156 190.710938 157.257812 188.054688 159.675781 C 185.238281 162.222656 183.832031 165.316406 183.832031 168.964844 C 183.832031 172.925781 185.335938 176.128906 188.351562 178.582031 C 189.824219 179.777344 192.839844 181.457031 197.390625 183.625 L 197.390625 202.0625 C 195.382812 202.15625 193.40625 201.683594 191.464844 200.640625 C 189.421875 199.507812 188.402344 198.199219 188.402344 196.714844 C 188.402344 196.117188 188.875 195.460938 189.824219 194.75 " fill-opacity="1" fill-rule="nonzero"/></g></svg>